<svg xmlns="http://www.w3.org/2000/svg" viewBox="0 0 360 470"><ellipse cx="180" cy="454" rx="96" ry="14" fill="#E2BBA2" opacity=".55"/>
          <!-- back hair -->
          <path d="M74,152 C74,72 114,32 180,32 C246,32 286,72 286,152 C286,210 268,242 256,256 L104,256 C92,242 74,210 74,152 Z" fill="#6A4A38"/>
          <path d="M80,152 C80,184 88,222 102,248 L122,248 C106,218 98,184 98,154 Z" fill="#5C3F2F" opacity=".55"/>
          <path d="M280,152 C280,184 272,222 258,248 L238,248 C254,218 262,184 262,154 Z" fill="#5C3F2F" opacity=".55"/>
          <!-- ears -->
          <ellipse cx="90" cy="168" rx="15" ry="18" fill="#FFE0C9"/>
          <ellipse cx="270" cy="168" rx="15" ry="18" fill="#FFE0C9"/>
          <ellipse cx="90" cy="170" rx="7" ry="9" fill="#F1C0A0"/>
          <ellipse cx="270" cy="170" rx="7" ry="9" fill="#F1C0A0"/>
          <!-- neck -->
          <path d="M162,230 L198,230 L201,266 L159,266 Z" fill="#F1C0A0"/>
          <!-- body uniform (peach scrubs) -->
          <path d="M110,268 C110,257 147,249 180,249 C213,249 250,257 250,268 L264,426 C264,448 233,454 180,454 C127,454 96,448 96,426 Z" fill="#FF9E6B"/>
          <path d="M180,249 C213,249 250,257 250,268 L264,426 C264,448 233,454 180,454 Z" fill="#EE8254" opacity=".3"/>
          <!-- white coat -->
          <path d="M152,258 L180,300 L208,258 C233,264 248,275 250,293 L258,424 C258,446 232,452 180,452 C128,452 102,446 102,424 L110,293 C112,275 127,264 152,258 Z" fill="#FFFFFF"/>
          <path d="M180,300 L180,452 C200,452 220,449 234,444 L234,300 Z" fill="#F2E8E0" opacity=".7"/>
          <path d="M180,300 L180,452" fill="none" stroke="#E7D8CC" stroke-width="3"/>
          <!-- collar -->
          <path d="M152,258 L180,300 L161,274 Z" fill="#E7D8CC"/>
          <path d="M208,258 L180,300 L199,274 Z" fill="#E7D8CC"/>
          <!-- buttons -->
          <circle cx="180" cy="338" r="4" fill="#EE8254"/>
          <circle cx="180" cy="372" r="4" fill="#EE8254"/>
          <circle cx="180" cy="406" r="4" fill="#EE8254"/>
          <!-- pocket cross -->
          <rect x="206" y="330" width="26" height="26" rx="5" fill="#FFF1E8" stroke="#F2DDCF" stroke-width="2"/>
          <rect x="216" y="335" width="6" height="16" rx="1.5" fill="#E5613B"/>
          <rect x="211" y="340" width="16" height="6" rx="1.5" fill="#E5613B"/>
          <!-- stethoscope -->
          <path d="M164,262 C154,302 164,338 183,356" fill="none" stroke="#586577" stroke-width="7" stroke-linecap="round"/>
          <path d="M196,262 C207,302 199,340 185,356" fill="none" stroke="#586577" stroke-width="7" stroke-linecap="round"/>
          <circle cx="184" cy="364" r="14" fill="#6E7C90"/>
          <circle cx="184" cy="364" r="8" fill="#A6B3C4"/>
          <!-- left arm -->
          <path d="M114,272 C96,304 94,350 106,378 C111,390 129,390 134,377 C143,348 139,303 131,276 Z" fill="#FF9E6B"/>
          <circle cx="120" cy="386" r="16" fill="#FFE0C9"/>
          <!-- right arm (wave) -->
          <path d="M240,274 C260,253 281,236 295,239 C306,241 308,256 298,266 C281,285 257,300 245,304 Z" fill="#FF9E6B"/>
          <circle cx="299" cy="239" r="16" fill="#FFE0C9"/>
          <!-- head -->
          <ellipse cx="180" cy="158" rx="94" ry="90" fill="#FFE3CE"/>
          <!-- bangs -->
          <path d="M86,152 C86,84 122,48 180,48 C238,48 274,84 274,152 C256,152 247,137 229,151 C214,162 205,137 186,151 C171,161 155,137 140,151 C122,163 104,152 86,152 Z" fill="#6A4A38"/>
          <path d="M118,74 C140,58 176,56 176,56 C150,60 132,76 123,98 Z" fill="#7E5B46" opacity=".6"/>
          <!-- eyes -->
          <ellipse cx="150" cy="168" rx="12" ry="15.5" fill="#3C2E26"/>
          <ellipse cx="210" cy="168" rx="12" ry="15.5" fill="#3C2E26"/>
          <circle cx="146" cy="162" r="4.6" fill="#fff"/>
          <circle cx="206" cy="162" r="4.6" fill="#fff"/>
          <circle cx="154" cy="173" r="2.3" fill="#fff" opacity=".75"/>
          <circle cx="214" cy="173" r="2.3" fill="#fff" opacity=".75"/>
          <!-- blush -->
          <ellipse cx="131" cy="193" rx="17" ry="10" fill="#FF9E7A" opacity=".5"/>
          <ellipse cx="229" cy="193" rx="17" ry="10" fill="#FF9E7A" opacity=".5"/>
          <!-- nose -->
          <ellipse cx="180" cy="184" rx="3" ry="2.4" fill="#E8A883"/>
          <!-- mouth -->
          <path d="M167,191 Q180,207 193,191 Q187,201 180,201 Q173,201 167,191 Z" fill="#B0463A"/>
          <!-- nurse cap -->
          <g transform="rotate(-8 180 62)">
            <path d="M102,88 C102,54 118,42 143,42 L217,42 C242,42 258,54 258,88 C220,75 140,75 102,88 Z" fill="#fff"/>
            <path d="M102,88 C140,75 220,75 258,88 C258,82 256,77 256,77 C220,66 140,66 104,77 C104,77 102,82 102,88 Z" fill="#EFE6DC"/>
            <rect x="171" y="50" width="18" height="40" rx="3" fill="#E5613B"/>
            <rect x="160" y="61" width="40" height="18" rx="3" fill="#E5613B"/>
          </g></svg>